<svg xmlns="http://www.w3.org/2000/svg" viewBox="0 0 200 50" fill="none">
  <!-- Feather icon (scaled to fit ~38×38 within 50px height, positioned at left) -->
  <!-- Feather vane -->
  <path d="M5 46 C5 40 8 30 13 22 C18 14 26 9 33 8 C37 7 39 9 38 14 C36 22 29 31 21 37 C14 41 8 44 5 46 Z" fill="#f0a500"/>
  <!-- Shaft -->
  <path d="M5 46 Q20 28 37 10" stroke="#c07800" stroke-width="1.5" fill="none" stroke-linecap="round"/>
  <!-- Barb separators left -->
  <path d="M9 40 L5 34" stroke="#c07800" stroke-width="1" stroke-linecap="round" opacity="0.7"/>
  <path d="M14 33 L9 26" stroke="#c07800" stroke-width="1" stroke-linecap="round" opacity="0.7"/>
  <path d="M20 26 L15 19" stroke="#c07800" stroke-width="1" stroke-linecap="round" opacity="0.7"/>
  <!-- Barb separators right -->
  <path d="M9 40 L18 38" stroke="#c07800" stroke-width="1" stroke-linecap="round" opacity="0.7"/>
  <path d="M14 33 L24 30" stroke="#c07800" stroke-width="1" stroke-linecap="round" opacity="0.7"/>
  <path d="M20 26 L31 22" stroke="#c07800" stroke-width="1" stroke-linecap="round" opacity="0.7"/>
  <!-- Quill tail -->
  <path d="M5 46 C3 48 2 49 1 50" stroke="#f0a500" stroke-width="2" fill="none" stroke-linecap="round"/>
  <!-- "momo" wordmark in Lora serif, amber -->
  <text
    x="48"
    y="36"
    font-family="Lora, Georgia, 'Times New Roman', serif"
    font-size="28"
    font-weight="600"
    fill="#f0a500"
    letter-spacing="-0.5"
  >momo</text>
</svg>
