<svg xmlns="http://www.w3.org/2000/svg" viewBox="0 0 48 48" fill="none">
  <!-- Feather vane: filled diagonal leaf shape -->
  <path d="M6 44 C6 38 9 28 15 20 C21 12 30 7 38 6 C43 5 45 8 44 13 C42 22 34 32 24 38 C16 42 10 43 6 44 Z" fill="#f0a500"/>
  <!-- Shaft: darker line through center of vane -->
  <path d="M6 44 Q24 26 42 8" stroke="#c07800" stroke-width="1.5" fill="none" stroke-linecap="round"/>
  <!-- Barb separators left side -->
  <path d="M11 38 L6 32" stroke="#c07800" stroke-width="1" stroke-linecap="round" opacity="0.7"/>
  <path d="M17 31 L11 24" stroke="#c07800" stroke-width="1" stroke-linecap="round" opacity="0.7"/>
  <path d="M24 24 L18 17" stroke="#c07800" stroke-width="1" stroke-linecap="round" opacity="0.7"/>
  <!-- Barb separators right side -->
  <path d="M11 38 L20 36" stroke="#c07800" stroke-width="1" stroke-linecap="round" opacity="0.7"/>
  <path d="M17 31 L28 28" stroke="#c07800" stroke-width="1" stroke-linecap="round" opacity="0.7"/>
  <path d="M24 24 L36 20" stroke="#c07800" stroke-width="1" stroke-linecap="round" opacity="0.7"/>
  <!-- Quill tail curving down-left -->
  <path d="M6 44 C4 46 3 47 2 48" stroke="#f0a500" stroke-width="2.5" fill="none" stroke-linecap="round"/>
</svg>
